<mxfile host="Electron" modified="2024-02-11T01:22:11.539Z" agent="Mozilla/5.0 (Windows NT 10.0; Win64; x64) AppleWebKit/537.36 (KHTML, like Gecko) draw.io/23.0.2 Chrome/120.0.6099.109 Electron/28.1.0 Safari/537.36" etag="H1Shd7LFPdpwuBIfBCi3" version="23.0.2" type="device">
  <diagram name="Page-1" id="Kq5woUldXzjBOMt3bwqu">
    <mxGraphModel dx="3187" dy="1898" grid="1" gridSize="10" guides="1" tooltips="1" connect="1" arrows="1" fold="1" page="1" pageScale="1" pageWidth="850" pageHeight="1400" math="0" shadow="0">
      <root>
        <mxCell id="0" />
        <mxCell id="1" parent="0" />
        <mxCell id="BBML5AKLowmlYdvrG82I-1" value="" style="rounded=0;whiteSpace=wrap;html=1;sketch=1;hachureGap=4;jiggle=2;curveFitting=1;fontFamily=Architects Daughter;fontSource=https%3A%2F%2Ffonts.googleapis.com%2Fcss%3Ffamily%3DArchitects%2BDaughter;fontSize=20;" vertex="1" parent="1">
          <mxGeometry x="40" y="40" width="1440" height="3120" as="geometry" />
        </mxCell>
        <mxCell id="BBML5AKLowmlYdvrG82I-2" value="" style="rounded=0;whiteSpace=wrap;html=1;sketch=1;hachureGap=4;jiggle=2;curveFitting=1;fontFamily=Architects Daughter;fontSource=https%3A%2F%2Ffonts.googleapis.com%2Fcss%3Ffamily%3DArchitects%2BDaughter;fontSize=20;" vertex="1" parent="1">
          <mxGeometry x="40" y="2580" width="1440" height="580" as="geometry" />
        </mxCell>
        <mxCell id="BBML5AKLowmlYdvrG82I-5" value="Support" style="rounded=0;whiteSpace=wrap;html=1;sketch=1;hachureGap=4;jiggle=2;curveFitting=1;fontFamily=Architects Daughter;fontSource=https%3A%2F%2Ffonts.googleapis.com%2Fcss%3Ffamily%3DArchitects%2BDaughter;fontSize=60;strokeWidth=0;align=left;" vertex="1" parent="1">
          <mxGeometry x="170" y="2700" width="460" height="60" as="geometry" />
        </mxCell>
        <mxCell id="BBML5AKLowmlYdvrG82I-6" value="Privacy Policy" style="rounded=0;whiteSpace=wrap;html=1;sketch=1;hachureGap=4;jiggle=2;curveFitting=1;fontFamily=Architects Daughter;fontSource=https%3A%2F%2Ffonts.googleapis.com%2Fcss%3Ffamily%3DArchitects%2BDaughter;fontSize=35;strokeWidth=0;align=left;" vertex="1" parent="1">
          <mxGeometry x="170" y="2840" width="460" height="60" as="geometry" />
        </mxCell>
        <mxCell id="BBML5AKLowmlYdvrG82I-7" value="Contact Us" style="rounded=0;whiteSpace=wrap;html=1;sketch=1;hachureGap=4;jiggle=2;curveFitting=1;fontFamily=Architects Daughter;fontSource=https%3A%2F%2Ffonts.googleapis.com%2Fcss%3Ffamily%3DArchitects%2BDaughter;fontSize=35;strokeWidth=0;align=left;" vertex="1" parent="1">
          <mxGeometry x="170" y="2770" width="460" height="60" as="geometry" />
        </mxCell>
        <mxCell id="BBML5AKLowmlYdvrG82I-8" value="Return Policy" style="rounded=0;whiteSpace=wrap;html=1;sketch=1;hachureGap=4;jiggle=2;curveFitting=1;fontFamily=Architects Daughter;fontSource=https%3A%2F%2Ffonts.googleapis.com%2Fcss%3Ffamily%3DArchitects%2BDaughter;fontSize=35;strokeWidth=0;align=left;" vertex="1" parent="1">
          <mxGeometry x="170" y="2900" width="460" height="60" as="geometry" />
        </mxCell>
        <mxCell id="BBML5AKLowmlYdvrG82I-9" value="Logo here" style="ellipse;whiteSpace=wrap;html=1;aspect=fixed;sketch=1;hachureGap=4;jiggle=2;curveFitting=1;fontFamily=Architects Daughter;fontSource=https%3A%2F%2Ffonts.googleapis.com%2Fcss%3Ffamily%3DArchitects%2BDaughter;fontSize=20;" vertex="1" parent="1">
          <mxGeometry x="945" y="2680" width="330" height="330" as="geometry" />
        </mxCell>
      </root>
    </mxGraphModel>
  </diagram>
</mxfile>
